<?xml version="1.0" encoding="iso-8859-1"?>
<!-- Generator: Adobe Illustrator 19.0.0, SVG Export Plug-In . SVG Version: 6.00 Build 0)  -->
<svg version="1.1" id="Capa_1" xmlns="http://www.w3.org/2000/svg" xmlns:xlink="http://www.w3.org/1999/xlink" x="0px" y="0px"
	 viewBox="0 0 512 512" style="enable-background:new 0 0 512 512;" xml:space="preserve">
<rect style="fill:#0052B4;" width="512" height="512"/>
<g>
	<polygon style="fill:#F0F0F0;" points="128,307.482 141.697,336.124 172.63,328.974 158.778,357.542 183.652,377.268 
		152.682,384.248 152.767,415.997 128,396.134 103.233,415.997 103.319,384.248 72.348,377.268 97.223,357.542 83.37,328.974 
		114.303,336.124 	"/>
	<polygon style="fill:#F0F0F0;" points="387.844,343.989 394.378,357.65 409.131,354.241 402.524,367.865 414.389,377.275 
		399.617,380.604 399.658,395.747 387.844,386.273 376.032,395.747 376.073,380.604 361.301,377.275 373.166,367.865 
		366.557,354.241 381.312,357.65 	"/>
	<polygon style="fill:#F0F0F0;" points="327.066,199.066 333.599,212.728 348.353,209.317 341.747,222.943 353.611,232.352 
		338.838,235.681 338.878,250.824 327.066,241.35 315.253,250.824 315.294,235.681 300.522,232.352 312.386,222.943 
		305.779,209.317 320.532,212.728 	"/>
	<polygon style="fill:#F0F0F0;" points="387.844,116.253 394.378,129.914 409.131,126.504 402.525,140.13 414.389,149.538 
		399.617,152.869 399.658,168.011 387.844,158.537 376.032,168.011 376.073,152.869 361.301,149.538 373.165,140.13 
		366.557,126.504 381.312,129.914 	"/>
	<polygon style="fill:#F0F0F0;" points="440.934,178.363 447.468,192.024 462.221,188.614 455.614,202.24 467.478,211.649 
		452.706,214.978 452.747,230.121 440.934,220.646 429.122,230.121 429.162,214.978 414.389,211.649 426.253,202.24 
		419.646,188.614 434.401,192.024 	"/>
	<polygon style="fill:#F0F0F0;" points="402.973,250.824 408.112,266.641 424.742,266.641 411.287,276.415 416.426,292.231 
		402.973,282.456 389.518,292.231 394.657,276.415 381.204,266.641 397.833,266.641 	"/>
	<polygon style="fill:#F0F0F0;" points="256,0 256,48.896 215.853,89.043 256,89.043 256,166.957 203.464,166.957 256,219.492 
		256,256 232.281,256 166.957,190.664 166.957,256 89.043,256 89.043,178.276 11.331,256 0,256 0,207.104 40.147,166.957 0,166.957 
		0,89.043 52.536,89.043 0,36.508 0,0 23.719,0 89.043,65.336 89.043,0 166.957,0 166.957,77.724 244.669,0 	"/>
</g>
<polygon style="fill:#D80027;" points="0,152.001 103.999,152.001 104.001,256 152.001,256 152.001,152.001 256,152.001 
	256,104.001 151.999,104.001 152.001,0 104.001,0 104.001,104.001 0,104.001 "/>
<polygon style="fill:#0052B4;" points="166.957,166.957 256,256 256,230.82 192.137,166.957 "/>
<polygon style="fill:#F0F0F0;" points="166.957,166.957 256,256 256,230.82 192.137,166.957 "/>
<g>
	<polygon style="fill:#D80027;" points="166.957,166.957 256,256 256,230.82 192.137,166.957 	"/>
	<polygon style="fill:#D80027;" points="63.862,166.959 0,230.821 0,256 0,256 89.041,166.959 	"/>
</g>
<polygon style="fill:#0052B4;" points="89.043,89.043 0,0 0,25.18 63.863,89.043 "/>
<polygon style="fill:#F0F0F0;" points="89.043,89.043 0,0 0,25.18 63.863,89.043 "/>
<g>
	<polygon style="fill:#D80027;" points="89.043,89.043 0,0 0,25.18 63.863,89.043 	"/>
	<polygon style="fill:#D80027;" points="192.138,89.041 256,25.179 256,0 256,0 166.959,89.041 	"/>
</g>
<g>
</g>
<g>
</g>
<g>
</g>
<g>
</g>
<g>
</g>
<g>
</g>
<g>
</g>
<g>
</g>
<g>
</g>
<g>
</g>
<g>
</g>
<g>
</g>
<g>
</g>
<g>
</g>
<g>
</g>
</svg>
