
<svg width="164px" height="33px" viewBox="0 0 164 33" version="1.1" xmlns="http://www.w3.org/2000/svg" xmlns:xlink="http://www.w3.org/1999/xlink">
    <defs>
        <path d="M68.0848485,15.7504046 C71.2103638,15.7504046 73.7526257,18.2926665 73.7526257,21.4181818 C73.7526257,24.543002 71.2103638,27.0859591 68.0848485,27.0859591 C64.9593331,27.0859591 62.4170712,24.543002 62.4170712,21.4181818 C62.4170712,18.2926665 64.9593331,15.7504046 68.0848485,15.7504046 M68.0848485,29.8666667 C63.4264681,29.8666667 59.6363636,26.0765622 59.6363636,21.4181818 C59.6363636,16.7598014 63.4264681,12.969697 68.0848485,12.969697 C72.7432289,12.969697 76.5333333,16.7598014 76.5333333,21.4181818 C76.5333333,26.0765622 72.7432289,29.8666667 68.0848485,29.8666667 Z M132.586884,31.1642971 L163.892587,31.1642971 L163.892587,33.8418482 L132.586884,33.8418482 L132.586884,35.9818808 C132.586884,38.6386808 130.398636,40.8001339 127.708901,40.8001339 C125.019165,40.8001339 122.831595,38.6386808 122.831595,35.9818808 C122.831595,33.3250808 125.019165,31.1642971 127.708901,31.1642971 L129.87614,31.1642971 L129.87614,28.2122971 C128.610901,29.1795624 127.057645,29.6795951 125.433909,29.6374237 C121.704603,29.5363461 118.669926,26.402942 118.669926,22.6516931 L118.669926,21.3604441 L113.331793,26.6332114 C111.399033,28.5423053 108.722174,29.6374237 105.987711,29.6374237 C105.956537,29.6347461 105.921298,29.6367543 105.888769,29.6367543 L105.493,29.6367543 L105.493,29.6226971 C103.743215,29.5236278 102.169628,28.8682971 100.79257,27.6687543 C98.3739091,28.9392522 95.6624876,29.617342 92.8460248,29.6240359 L86.9813306,29.6360849 C86.8972975,29.6387624 86.8125868,29.6401012 86.7271983,29.6401012 L85.0729669,29.6401012 L85.0702562,26.9625502 L86.9399917,26.9585339 C89.3986364,26.8708441 90.9749339,25.2449012 90.9749339,22.7668278 C90.9749339,21.2821257 90.0444711,19.4426482 89.1445041,17.6634155 C88.7629669,16.9083461 88.3949835,16.1720196 88.0907025,15.4564441 C85.5459917,19.7713176 81.5991488,26.4585012 80.0960413,28.9807543 L79.8012479,29.4419624 C77.0681405,33.5312522 72.5018926,35.9591216 67.5737603,35.9591216 C59.5092975,35.9591216 52.9479421,29.4787788 52.9479421,21.5123951 L52.9479421,20.4079053 C52.9479421,18.1159216 51.0009504,16.0696033 48.7808512,16.02944 C47.622686,16.0133747 46.5451653,16.435089 45.7251653,17.2303216 C44.9051653,18.0255543 44.4531488,19.0892114 44.4531488,20.2244931 L44.4531488,28.3013257 L41.742405,28.3013257 L41.742405,20.2244931 C41.742405,17.911089 39.8367521,16.0287706 37.4946694,16.0287706 C35.1525868,16.0287706 33.2476116,17.911089 33.2476116,20.2244931 L33.2476116,28.3013257 L30.5368678,28.3013257 L30.5368678,20.2244931 C30.5368678,17.911089 28.6312149,16.0287706 26.2891322,16.0287706 L0.000338842975,16.0287706 L0.000338842975,13.3512196 L26.2891322,13.3512196 C28.5885207,13.3512196 30.6242893,14.463742 31.8922397,16.1659951 C33.1595124,14.463742 35.1959587,13.3512196 37.4946694,13.3512196 C39.7920248,13.3512196 41.8271157,14.4617339 43.0950661,16.1626482 C43.3159917,15.8667788 43.5552149,15.582289 43.8256116,15.319889 C45.1694628,14.0172604 46.957876,13.3117257 48.8303223,13.3525584 C52.531843,13.4194971 55.658686,16.6506318 55.658686,20.4079053 L55.658686,21.5123951 C55.658686,28.0021094 61.0042727,33.2815706 67.5737603,33.2815706 C71.5890496,33.2815706 75.3088678,31.3028604 77.5249008,27.9887216 L77.7824215,27.5857502 C80.0397934,23.7970155 87.9585537,10.3590563 88.0385207,10.2245094 L88.0446198,10.2271869 C88.4681736,9.48684408 89.0069339,8.93794612 89.4040579,8.64810122 L91.0149174,10.8008522 C90.9986529,10.8135706 90.6435455,11.0913665 90.3778926,11.56864 L90.381281,11.5706482 C90.3792479,11.5739951 90.3690826,11.5913992 90.3582397,11.610142 C90.2077934,11.8919543 90.0905537,12.236689 90.0905537,12.6369829 C90.0905537,13.5399869 90.8427851,15.0280359 91.5699421,16.4665502 C92.5613967,18.4278563 93.6856777,20.6502237 93.6856777,22.7668278 C93.6856777,24.3793829 93.205876,25.812542 92.3675785,26.9478237 L92.8399256,26.9464849 C95.0139421,26.9411298 97.1140909,26.45984 99.0183884,25.5541584 C97.6840248,23.2996604 97.4922397,20.5478073 98.617876,18.2002645 C99.8316116,15.6673012 102.070686,13.9503216 104.761099,13.4897829 C107.399331,13.0366073 110.105331,13.8840522 111.99743,15.7523135 L111.996752,17.6460114 L104.855298,24.6933257 C104.330091,25.2114318 103.776421,25.6927216 103.197678,26.1338482 C104.032587,26.6934563 104.92781,26.9592033 105.948405,26.9592033 L105.983645,26.9598727 L105.987711,26.9598727 C108.00857,26.9598727 109.986736,26.1505829 111.415298,24.7401829 L118.652306,17.591791 L118.669926,17.6091951 L118.669926,14.6899951 L121.380669,14.6899951 L121.380669,22.6516931 C121.380669,24.9664359 123.232107,26.8996278 125.508455,26.9612114 C126.678818,26.9920033 127.76176,26.5709584 128.59057,25.7743869 C129.41938,24.9778155 129.87614,23.9094727 129.87614,22.7668278 L129.87614,14.7080686 L132.586884,14.7080686 L132.586884,31.1642971 Z M129.87614,35.9818808 L129.87614,33.8418482 L127.708901,33.8418482 C126.51414,33.8418482 125.542339,34.8017502 125.542339,35.9818808 C125.542339,37.1620114 126.51414,38.1225829 127.708901,38.1225829 C128.903661,38.1225829 129.87614,37.1620114 129.87614,35.9818808 Z M101.336752,24.1671869 C101.899231,23.7535053 102.434603,23.2976522 102.938802,22.7996278 L109.00138,16.8173094 C108.147496,16.3152686 107.167562,16.0475135 106.168653,16.0475135 C105.854207,16.0475135 105.538405,16.074289 105.223959,16.12784 C103.41386,16.4377665 101.899231,17.6105339 101.067711,19.3455869 C100.336488,20.8711216 100.465248,22.6711053 101.336752,24.1671869 Z" id="path-1"></path>
    </defs>
    <g id="0.-Global-Navigation" stroke="none" stroke-width="1" fill="none" fill-rule="evenodd">
        <g id="Blocks-/-Global-/-Header:-Mosey" transform="translate(-638.000000, -32.000000)">
            <g id="💰Logos/Mosey" transform="translate(638.000000, 24.000000)">
                <mask id="mask-2" fill="white">
                    <use xlink:href="#path-1"></use>
                </mask>
                <use id="MASK" fill="#1A1A1A" fill-rule="evenodd" xlink:href="#path-1"></use>
                <g id="🌈-Color-/-Fill-/-BLACK-#000" mask="url(#mask-2)"></g>
            </g>
        </g>
    </g>
</svg>